# xmcd
#
# Track frame offsets:
#	182
#	11217
#	26627
#	45267
#	59882
#	78807
#	99147
#	111932
#	127240
#	141540
#	162935
#	173510
#	184810
#	196340
#
# Disc length: 2746 seconds
#
# Revision: 1
# Processed by: cddbd v1.5PL3 Copyright (c) Steve Scherf et al.
# Submitted via: CDex 1.50Beta5
#
DISCID=be0ab80e
DTITLE=MOVER - Mover
DYEAR=1900
DGENRE=
TTITLE0=Kick The Beam
TTITLE1=Move Over
TTITLE2=Junk
TTITLE3=Samba Diablo
TTITLE4=Tricolor
TTITLE5=Stand
TTITLE6=We Got It Going On(Featuring Ruby Turner)
TTITLE7=Bite The Bullet
TTITLE8=Classic No.9
TTITLE9=Let's Bond
TTITLE10=Stay Gold
TTITLE11=Capital Lights
TTITLE12=Fat Savaloy
TTITLE13=Mr.X
EXTD=
EXTT0=
EXTT1=
EXTT2=
EXTT3=
EXTT4=
EXTT5=
EXTT6=
EXTT7=
EXTT8=
EXTT9=
EXTT10=
EXTT11=
EXTT12=
EXTT13=
PLAYORDER=
